<?xml version="1.0" standalone="no"?>
<!DOCTYPE svg PUBLIC "-//W3C//DTD SVG 20010904//EN"
 "http://www.w3.org/TR/2001/REC-SVG-20010904/DTD/svg10.dtd">
<svg version="1.0" xmlns="http://www.w3.org/2000/svg"
 width="512.000000pt" height="512.000000pt" viewBox="0 0 512.000000 512.000000"
 preserveAspectRatio="xMidYMid meet">
<metadata>
Created by potrace 1.14, written by Peter Selinger 2001-2017
</metadata>
<g transform="translate(0.000000,512.000000) scale(0.100000,-0.100000)"
fill="#000000" stroke="none">
<path d="M2379 5116 c-2 -2 -40 -6 -83 -10 -44 -4 -82 -8 -85 -10 -3 -2 -31
-7 -61 -11 -30 -3 -75 -11 -100 -17 -25 -5 -56 -12 -70 -14 -52 -10 -236 -66
-326 -100 -412 -154 -826 -454 -1084 -784 -19 -25 -37 -47 -40 -50 -7 -7 -45
-61 -105 -150 -176 -260 -312 -589 -374 -905 -40 -200 -46 -267 -45 -515 0
-183 3 -241 19 -345 3 -16 7 -43 9 -60 37 -265 165 -623 307 -860 10 -16 27
-46 38 -65 19 -36 131 -195 166 -239 330 -404 723 -685 1170 -839 308 -106
538 -141 890 -137 261 3 418 24 650 90 217 61 492 181 633 276 24 16 45 29 48
29 3 0 43 26 87 57 500 353 861 868 1012 1446 65 252 80 377 80 682 -1 274
-23 438 -97 695 -209 730 -782 1364 -1493 1652 -133 54 -376 126 -485 144 -70
11 -85 14 -195 30 -44 6 -460 15 -466 10z"/>
</g>
</svg>
